<svg width="29" height="29" viewBox="0 0 29 29" fill="none" xmlns="http://www.w3.org/2000/svg">
    <path
        d="M3.48291 15.7866C3.48291 15.026 4.09947 14.4095 4.86005 14.4095H7.61432C8.37489 14.4095 8.99145 15.026 8.99145 15.7866V22.6723C8.99145 23.4329 8.37489 24.0494 7.61432 24.0494H4.86005C4.09947 24.0494 3.48291 23.4329 3.48291 22.6723V15.7866Z"
        fill="currentColor" />
    <path
        d="M11.7457 10.2781C11.7457 9.5175 12.3623 8.90094 13.1229 8.90094H15.8771C16.6377 8.90094 17.2543 9.5175 17.2543 10.2781V22.6723C17.2543 23.4329 16.6377 24.0494 15.8771 24.0494H13.1229C12.3623 24.0494 11.7457 23.4329 11.7457 22.6723V10.2781Z"
        fill="currentColor" />
    <path
        d="M20.0085 6.14667C20.0085 5.3861 20.6251 4.76953 21.3857 4.76953H24.14C24.9005 4.76953 25.5171 5.3861 25.5171 6.14667V22.6723C25.5171 23.4329 24.9005 24.0494 24.14 24.0494H21.3857C20.6251 24.0494 20.0085 23.4329 20.0085 22.6723V6.14667Z"
        fill="currentColor" />
</svg>