<svg width="29" height="29" viewBox="0 0 29 29" fill="none" xmlns="http://www.w3.org/2000/svg">
    <path
        d="M14.3856 5.45828C14.3856 4.31743 15.3105 3.39258 16.4513 3.39258C17.5922 3.39258 18.517 4.31743 18.517 5.45828V6.14685C18.517 6.90742 19.1336 7.52399 19.8942 7.52399H24.0256C24.7861 7.52399 25.4027 8.14055 25.4027 8.90112V13.0325C25.4027 13.7931 24.7861 14.4097 24.0256 14.4097H23.337C22.1961 14.4097 21.2713 15.3345 21.2713 16.4754C21.2713 17.6162 22.1961 18.5411 23.337 18.5411H24.0256C24.7861 18.5411 25.4027 19.1576 25.4027 19.9182V24.0496C25.4027 24.8102 24.7861 25.4268 24.0256 25.4268H19.8942C19.1336 25.4268 18.517 24.8102 18.517 24.0496V23.3611C18.517 22.2202 17.5922 21.2953 16.4513 21.2953C15.3105 21.2953 14.3856 22.2202 14.3856 23.3611V24.0496C14.3856 24.8102 13.7691 25.4268 13.0085 25.4268H8.87707C8.1165 25.4268 7.49994 24.8102 7.49994 24.0496V19.9182C7.49994 19.1576 6.88337 18.5411 6.1228 18.5411H5.43423C4.29338 18.5411 3.36853 17.6162 3.36853 16.4754C3.36853 15.3345 4.29338 14.4097 5.43423 14.4097H6.1228C6.88337 14.4097 7.49994 13.7931 7.49994 13.0325V8.90112C7.49994 8.14055 8.1165 7.52399 8.87707 7.52399H13.0085C13.7691 7.52399 14.3856 6.90742 14.3856 6.14685V5.45828Z"
        fill="currentColor" />
</svg>